<?xml version="1.0" encoding="UTF-8" standalone="no"?>
<!DOCTYPE svg PUBLIC "-//W3C//DTD SVG 1.1//EN"
 "http://www.w3.org/Graphics/SVG/1.1/DTD/svg11.dtd">
<!-- Generated by graphviz version 2.26.3 (20100126.1600)
 -->
<!-- Title: G Pages: 1 -->
<svg width="464pt" height="962pt"
 viewBox="0.00 0.00 464.00 962.00" xmlns="http://www.w3.org/2000/svg" xmlns:xlink="http://www.w3.org/1999/xlink">
<g id="graph1" class="graph" transform="scale(1 1) rotate(0) translate(4 958)">
<title>G</title>
<polygon fill="white" stroke="white" points="-4,5 -4,-958 461,-958 461,5 -4,5"/>
<g id="graph2" class="cluster"><title>cluster_Global</title>
<polyline fill="none" stroke="gray" points="20,-8 436,-8 "/>
<path fill="none" stroke="gray" d="M436,-8C442,-8 448,-14 448,-20"/>
<polyline fill="none" stroke="gray" points="448,-20 448,-934 "/>
<path fill="none" stroke="gray" d="M448,-934C448,-940 442,-946 436,-946"/>
<polyline fill="none" stroke="gray" points="436,-946 20,-946 "/>
<path fill="none" stroke="gray" d="M20,-946C14,-946 8,-940 8,-934"/>
<polyline fill="none" stroke="gray" points="8,-934 8,-20 "/>
<path fill="none" stroke="gray" d="M8,-20C8,-14 14,-8 20,-8"/>
<text text-anchor="middle" x="228" y="-932.1" font-family="Times Roman,serif" font-size="11.00" fill="gray">\</text>
</g>
<!-- \\File_ANSI -->
<g id="node3" class="node"><title>\\File_ANSI</title>
<polygon fill="none" stroke="black" points="395,-916 319,-916 319,-880 395,-880 395,-916"/>
<text text-anchor="middle" x="357" y="-895.1" font-family="Courier,monospace" font-size="11.00">File_ANSI</text>
</g>
<!-- \\File_ASN1_Element -->
<g id="node4" class="node"><title>\\File_ASN1_Element</title>
<polygon fill="none" stroke="black" points="422,-862 292,-862 292,-826 422,-826 422,-862"/>
<text text-anchor="middle" x="357" y="-841.1" font-family="Courier,monospace" font-size="11.00">File_ASN1_Element</text>
</g>
<!-- \\File_ASN1 -->
<g id="node5" class="node"><title>\\File_ASN1</title>
<polygon fill="none" stroke="black" points="395,-808 319,-808 319,-772 395,-772 395,-808"/>
<text text-anchor="middle" x="357" y="-787.1" font-family="Courier,monospace" font-size="11.00">File_ASN1</text>
</g>
<!-- \\File_X509 -->
<g id="node6" class="node"><title>\\File_X509</title>
<polygon fill="none" stroke="black" points="395,-754 319,-754 319,-718 395,-718 395,-754"/>
<text text-anchor="middle" x="357" y="-733.1" font-family="Courier,monospace" font-size="11.00">File_X509</text>
</g>
<!-- \\util -->
<g id="node7" class="node"><title>\\util</title>
<polygon fill="none" stroke="black" points="384,-700 330,-700 330,-664 384,-664 384,-700"/>
<text text-anchor="middle" x="357" y="-679.1" font-family="Courier,monospace" font-size="11.00">util</text>
</g>
<!-- \\Login -->
<g id="node8" class="node"><title>\\Login</title>
<polygon fill="none" stroke="black" points="384,-646 330,-646 330,-610 384,-610 384,-646"/>
<text text-anchor="middle" x="357" y="-625.1" font-family="Courier,monospace" font-size="11.00">Login</text>
</g>
<!-- \\ClientManagerRegistration -->
<g id="node9" class="node"><title>\\ClientManagerRegistration</title>
<polygon fill="none" stroke="black" points="201,-592 17,-592 17,-556 201,-556 201,-592"/>
<text text-anchor="middle" x="109" y="-571.1" font-family="Courier,monospace" font-size="11.00">ClientManagerRegistration</text>
</g>
<!-- \\ClientManagerFunctions -->
<g id="node10" class="node"><title>\\ClientManagerFunctions</title>
<polygon fill="none" stroke="black" points="439,-592 275,-592 275,-556 439,-556 439,-592"/>
<text text-anchor="middle" x="357" y="-571.1" font-family="Courier,monospace" font-size="11.00">ClientManagerFunctions</text>
</g>
<!-- \\ClientManagerFunctions&#45;&gt;\\ClientManagerRegistration -->
<g id="edge4" class="edge"><title>\\ClientManagerFunctions&#45;&gt;\\ClientManagerRegistration</title>
<path fill="none" stroke="black" d="M274.42,-574C254.44,-574 232.839,-574 212.048,-574"/>
<polygon fill="none" stroke="black" points="211.917,-570.5 201.917,-574 211.916,-577.5 211.917,-570.5"/>
</g>
<!-- \\Registration -->
<g id="node11" class="node"><title>\\Registration</title>
<polygon fill="none" stroke="black" points="406,-538 308,-538 308,-502 406,-502 406,-538"/>
<text text-anchor="middle" x="357" y="-517.1" font-family="Courier,monospace" font-size="11.00">Registration</text>
</g>
<!-- \\Net_SSH2 -->
<g id="node12" class="node"><title>\\Net_SSH2</title>
<polygon fill="none" stroke="black" points="144,-484 74,-484 74,-448 144,-448 144,-484"/>
<text text-anchor="middle" x="109" y="-463.1" font-family="Courier,monospace" font-size="11.00">Net_SSH2</text>
</g>
<!-- \\Net_SFTP -->
<g id="node13" class="node"><title>\\Net_SFTP</title>
<polygon fill="none" stroke="black" points="392,-484 322,-484 322,-448 392,-448 392,-484"/>
<text text-anchor="middle" x="357" y="-463.1" font-family="Courier,monospace" font-size="11.00">Net_SFTP</text>
</g>
<!-- \\Net_SFTP&#45;&gt;\\Net_SSH2 -->
<g id="edge6" class="edge"><title>\\Net_SFTP&#45;&gt;\\Net_SSH2</title>
<path fill="none" stroke="black" d="M321.468,-466C277.67,-466 203.149,-466 155.016,-466"/>
<polygon fill="none" stroke="black" points="154.869,-462.5 144.869,-466 154.869,-469.5 154.869,-462.5"/>
</g>
<!-- \\Net_SSH1 -->
<g id="node14" class="node"><title>\\Net_SSH1</title>
<polygon fill="none" stroke="black" points="392,-430 322,-430 322,-394 392,-394 392,-430"/>
<text text-anchor="middle" x="357" y="-409.1" font-family="Courier,monospace" font-size="11.00">Net_SSH1</text>
</g>
<!-- \\Math_BigInteger -->
<g id="node15" class="node"><title>\\Math_BigInteger</title>
<polygon fill="none" stroke="black" points="416,-376 298,-376 298,-340 416,-340 416,-376"/>
<text text-anchor="middle" x="357" y="-355.1" font-family="Courier,monospace" font-size="11.00">Math_BigInteger</text>
</g>
<!-- \\Crypt_RC4 -->
<g id="node16" class="node"><title>\\Crypt_RC4</title>
<polygon fill="none" stroke="black" points="395,-322 319,-322 319,-286 395,-286 395,-322"/>
<text text-anchor="middle" x="357" y="-301.1" font-family="Courier,monospace" font-size="11.00">Crypt_RC4</text>
</g>
<!-- \\Crypt_Hash -->
<g id="node17" class="node"><title>\\Crypt_Hash</title>
<polygon fill="none" stroke="black" points="399,-268 315,-268 315,-232 399,-232 399,-268"/>
<text text-anchor="middle" x="357" y="-247.1" font-family="Courier,monospace" font-size="11.00">Crypt_Hash</text>
</g>
<!-- \\Crypt_RSA -->
<g id="node18" class="node"><title>\\Crypt_RSA</title>
<polygon fill="none" stroke="black" points="395,-214 319,-214 319,-178 395,-178 395,-214"/>
<text text-anchor="middle" x="357" y="-193.1" font-family="Courier,monospace" font-size="11.00">Crypt_RSA</text>
</g>
<!-- \\Crypt_Rijndael -->
<g id="node19" class="node"><title>\\Crypt_Rijndael</title>
<polygon fill="none" stroke="black" points="164,-106 54,-106 54,-70 164,-70 164,-106"/>
<text text-anchor="middle" x="109" y="-85.1" font-family="Courier,monospace" font-size="11.00">Crypt_Rijndael</text>
</g>
<!-- \\Crypt_DES -->
<g id="node20" class="node"><title>\\Crypt_DES</title>
<polygon fill="none" stroke="black" points="395,-160 319,-160 319,-124 395,-124 395,-160"/>
<text text-anchor="middle" x="357" y="-139.1" font-family="Courier,monospace" font-size="11.00">Crypt_DES</text>
</g>
<!-- \\Crypt_AES -->
<g id="node21" class="node"><title>\\Crypt_AES</title>
<polygon fill="none" stroke="black" points="395,-106 319,-106 319,-70 395,-70 395,-106"/>
<text text-anchor="middle" x="357" y="-85.1" font-family="Courier,monospace" font-size="11.00">Crypt_AES</text>
</g>
<!-- \\Crypt_AES&#45;&gt;\\Crypt_Rijndael -->
<g id="edge8" class="edge"><title>\\Crypt_AES&#45;&gt;\\Crypt_Rijndael</title>
<path fill="none" stroke="black" d="M318.25,-88C279.875,-88 220.385,-88 174.632,-88"/>
<polygon fill="none" stroke="black" points="174.502,-84.5001 164.502,-88 174.502,-91.5001 174.502,-84.5001"/>
</g>
<!-- \\Crypt_TripleDES -->
<g id="node22" class="node"><title>\\Crypt_TripleDES</title>
<polygon fill="none" stroke="black" points="416,-52 298,-52 298,-16 416,-16 416,-52"/>
<text text-anchor="middle" x="357" y="-31.1" font-family="Courier,monospace" font-size="11.00">Crypt_TripleDES</text>
</g>
</g>
</svg>
